<?xml version="1.0" standalone="no"?><!DOCTYPE svg PUBLIC "-//W3C//DTD SVG 1.1//EN" "http://www.w3.org/Graphics/SVG/1.1/DTD/svg11.dtd"><svg t="1715621266944" class="icon" viewBox="0 0 1024 1024" version="1.1" xmlns="http://www.w3.org/2000/svg" p-id="1149" width="200" height="200" xmlns:xlink="http://www.w3.org/1999/xlink"><path d="M511.4 512.2m-246.6 0a246.6 246.6 0 1 0 493.2 0 246.6 246.6 0 1 0-493.2 0Z" fill="#FF8025" p-id="1150" data-spm-anchor-id="a313x.collections_detail.0.i0.533b3a81C3b7dZ" class="selected"></path><path d="M520.4 211.8h-16.7c-9 0-16.3-7.3-16.3-16.3V41.3c0-9 7.3-16.3 16.3-16.3h16.7c9 0 16.3 7.3 16.3 16.3v154.1c0 9-7.4 16.4-16.3 16.4zM304.1 295.3l-11.8 11.8c-6.3 6.3-16.7 6.3-23.1 0l-109-109c-6.3-6.3-6.3-16.7 0-23.1l11.8-11.8c6.3-6.3 16.7-6.3 23.1 0l109 109c6.3 6.3 6.3 16.7 0 23.1zM210.2 507.2v16.7c0 9-7.3 16.3-16.3 16.3H39.8c-9 0-16.3-7.3-16.3-16.3v-16.7c0-9 7.3-16.3 16.3-16.3h154.1c9 0 16.3 7.3 16.3 16.3zM293.7 723.5l11.8 11.8c6.3 6.3 6.3 16.7 0 23.1l-109 109c-6.3 6.3-16.7 6.3-23.1 0l-11.8-11.8c-6.3-6.3-6.3-16.7 0-23.1l109-109c6.4-6.4 16.7-6.4 23.1 0zM505.6 817.4h16.7c9 0 16.3 7.3 16.3 16.3v154.1c0 9-7.3 16.3-16.3 16.3h-16.7c-9 0-16.3-7.3-16.3-16.3V833.7c0-9 7.4-16.3 16.3-16.3zM721.9 733.9l11.8-11.8c6.3-6.3 16.7-6.3 23.1 0l109 109c6.3 6.3 6.3 16.7 0 23.1L854 865.9c-6.3 6.3-16.7 6.3-23.1 0l-109-109c-6.3-6.3-6.3-16.7 0-23zM815.8 521.9v-16.7c0-9 7.3-16.3 16.3-16.3h154.1c9 0 16.3 7.3 16.3 16.3v16.7c0 9-7.3 16.3-16.3 16.3H832.1c-9 0-16.3-7.3-16.3-16.3zM732.3 305.7l-11.8-11.8c-6.3-6.3-6.3-16.7 0-23.1l109-109c6.3-6.3 16.7-6.3 23.1 0l11.8 11.8c6.3 6.3 6.3 16.7 0 23.1l-109 109c-6.4 6.3-16.7 6.3-23.1 0z" fill="#FF8025" p-id="1151" data-spm-anchor-id="a313x.collections_detail.0.i1.533b3a81C3b7dZ" class="selected"></path></svg>