<?xml version="1.0" standalone="no"?><!DOCTYPE svg PUBLIC "-//W3C//DTD SVG 1.1//EN" "http://www.w3.org/Graphics/SVG/1.1/DTD/svg11.dtd"><svg t="1715621439326" class="icon" viewBox="0 0 1024 1024" version="1.1" xmlns="http://www.w3.org/2000/svg" p-id="1972" xmlns:xlink="http://www.w3.org/1999/xlink" width="200" height="200"><path d="M798.5 267.1c-28.5 0-55.7 5.8-80.4 16.3-16.2-100.4-103.3-177-208.2-177-92 0-170.2 58.9-199.1 141-24.6-10-51.5-15.6-79.7-15.6-116.5 0-210.9 94.4-210.9 210.9s94.4 210.9 210.9 210.9c5.3 0 10.5-0.2 15.7-0.6v0.6h648.1c64.8-34.5 108.9-102.8 108.9-181.3 0-113.3-91.9-205.2-205.3-205.2zM213.2 738.2c-7.8 0-77.9 87.4-77.9 130.5s34.9 76.3 77.9 76.3c43 0 77.9-33.3 77.9-76.3s-69.2-130.5-77.9-130.5zM810.8 738.2c-7.8 0-77.9 87.4-77.9 130.5s34.9 76.3 77.9 76.3 77.9-33.3 77.9-76.3-69.1-130.5-77.9-130.5zM512 738.2c-7.8 0-77.9 87.4-77.9 130.5S469 945 512 945s77.9-33.3 77.9-76.3-69.2-130.5-77.9-130.5z" fill="#9FDAFF" p-id="1973" data-spm-anchor-id="a313x.collections_detail.0.i8.533b3a81C3b7dZ" class="selected"></path></svg>