<?xml version="1.0" standalone="no"?><!DOCTYPE svg PUBLIC "-//W3C//DTD SVG 1.1//EN" "http://www.w3.org/Graphics/SVG/1.1/DTD/svg11.dtd"><svg t="1715621692183" class="icon" viewBox="0 0 1024 1024" version="1.1" xmlns="http://www.w3.org/2000/svg" p-id="2296" xmlns:xlink="http://www.w3.org/1999/xlink" width="200" height="200"><path d="M801.5 214.2c-28.8 0-56.3 5.9-81.2 16.5C703.9 129.3 615.9 51.8 509.9 51.8c-93 0-172 59.5-201.2 142.5-24.9-10.2-52-15.8-80.6-15.8C110.4 178.6 15 274 15 391.7c0 117.7 95.4 213.2 213.2 213.2 5.3 0 10.6-0.2 15.8-0.6v0.6h655c65.4-34.9 110-103.8 110-183.2 0-114.6-92.9-207.5-207.5-207.5zM523.7 818.9l107.4-15.3 13.7-61.3-60-18.9-66.9 85.4 40.5-100.7-46.4-42.5-46.3 42.5L506.3 809l-67.1-85.6-60 18.8 13.7 61.4 107.7 15.3-107.7 15.3-13.7 61.4 60 18.8 67.1-85.6-40.6 100.9 46.3 42.5 46.4-42.5L517.9 829l66.9 85.4 60-18.9-13.7-61.3z" fill="#9FDAFF" p-id="2297"></path></svg>